<svg xmlns="http://www.w3.org/2000/svg" viewBox="0 0 64 64" fill="none">
  <defs>
    <linearGradient id="cupGrad" x1="0%" y1="0%" x2="100%" y2="100%">
      <stop offset="0%" style="stop-color:#FFD700;stop-opacity:1" />
      <stop offset="50%" style="stop-color:#FFA500;stop-opacity:1" />
      <stop offset="100%" style="stop-color:#FF8C00;stop-opacity:1" />
    </linearGradient>
  </defs>
  <!-- 奖杯主体 -->
  <path d="M20 12 C20 8, 24 6, 32 6 C40 6, 44 8, 44 12 L44 24 C44 32, 38 36, 32 36 C26 36, 20 32, 20 24 Z" fill="url(#cupGrad)" stroke="#B8860B" stroke-width="1.5"/>
  <!-- 奖杯左耳 -->
  <path d="M16 14 C12 14, 10 18, 10 22 C10 26, 13 28, 16 26 Z" fill="url(#cupGrad)" stroke="#B8860B" stroke-width="1.5"/>
  <!-- 奖杯右耳 -->
  <path d="M48 14 C52 14, 54 18, 54 22 C54 26, 51 28, 48 26 Z" fill="url(#cupGrad)" stroke="#B8860B" stroke-width="1.5"/>
  <!-- 奖杯底座 -->
  <rect x="28" y="36" width="8" height="4" rx="1" fill="url(#cupGrad)" stroke="#B8860B" stroke-width="1"/>
  <rect x="24" y="40" width="16" height="4" rx="1" fill="url(#cupGrad)" stroke="#B8860B" stroke-width="1"/>
  <rect x="22" y="44" width="20" height="5" rx="2" fill="url(#cupGrad)" stroke="#B8860B" stroke-width="1.5"/>
  <!-- 音符装饰 -->
  <circle cx="29" cy="20" r="3" fill="#FFF" opacity="0.9"/>
  <path d="M31 17 L31 24 Q31 27, 28 27 Q25 27, 25 24" stroke="#FFF" stroke-width="2" fill="none" stroke-linecap="round"/>
  <circle cx="37" cy="22" r="2.5" fill="#FFF" opacity="0.8"/>
  <path d="M39 19 L39 25 Q39 27.5, 37 27.5 Q35 27.5, 35 25" stroke="#FFF" stroke-width="1.8" fill="none" stroke-linecap="round"/>
</svg>
